<svg viewBox="0 0 36 36" version="1.1" xmlns="http://www.w3.org/2000/svg" xmlns:xlink="http://www.w3.org/1999/xlink" fill="#000000"><g id="SVGRepo_bgCarrier" stroke-width="0"></g><g id="SVGRepo_tracerCarrier" stroke-linecap="round" stroke-linejoin="round"></g><g id="SVGRepo_iconCarrier"> <title>attention</title> <desc>Created with Sketch.</desc> <g id="icons" stroke="none" stroke-width="1" fill="none" fill-rule="evenodd"> <g id="ui-gambling-website-lined-icnos-casinoshunter" transform="translate(-1122.000000, -282.000000)" fill="#252528" fill-rule="nonzero"> <g id="square-filled" transform="translate(50.000000, 120.000000)"> <path d="M1090,162 C1099.94113,162 1108,170.058875 1108,180 C1108,189.941125 1099.94113,198 1090,198 C1080.05887,198 1072,189.941125 1072,180 C1072,170.058875 1080.05887,162 1090,162 Z M1090,164 C1081.16344,164 1074,171.163444 1074,180 C1074,188.836556 1081.16344,196 1090,196 C1098.83656,196 1106,188.836556 1106,180 C1106,171.163444 1098.83656,164 1090,164 Z M1090,186 C1090.55228,186 1091,186.447715 1091,187 C1091,187.552285 1090.55228,188 1090,188 C1089.44772,188 1089,187.552285 1089,187 C1089,186.447715 1089.44772,186 1090,186 Z M1090,172 C1090.55228,172 1091,172.447715 1091,173 L1091,183 C1091,183.552285 1090.55228,184 1090,184 C1089.44772,184 1089,183.552285 1089,183 L1089,173 C1089,172.447715 1089.44772,172 1090,172 Z" id="attention"> </path> </g> </g> </g> </g></svg>